<?xml version="1.0" standalone="no"?><!DOCTYPE svg PUBLIC "-//W3C//DTD SVG 1.1//EN" "http://www.w3.org/Graphics/SVG/1.1/DTD/svg11.dtd"><svg t="1500038554103" class="icon" style="" viewBox="0 0 1024 1024" version="1.1" xmlns="http://www.w3.org/2000/svg" p-id="875" xmlns:xlink="http://www.w3.org/1999/xlink" width="200" height="200"><defs><style type="text/css"></style></defs><path d="M61.06 119.416c-20.881 0-38.007 17.43-38.007 38.082v652.448c0 21.194 17.125 38.107 38.007 38.107h414.738v41.573l0.544 3.764H266.687c-12.306 0-22.76 10.201-22.76 22.532 0 12.876 10.453 22.805 22.76 22.805h494.261c12.825 0 22.76-9.929 22.76-22.805 0-12.331-9.934-22.532-22.76-22.532H551.293l0.272-3.764v-41.573h415.01c21.4 0 38.007-16.913 38.007-38.107V157.498c0-20.652-16.606-38.082-38.007-38.082H61.06z m220.356 652.696c27.578-78.591 20.363-155.325 10.972-201.208 11.245 2.7 22.216 3.765 34.003 3.765 47.125 0 90.223-19.313 121.285-50.71 31.063-31.124 50.338-74.307 50.338-121.254 0-12.603-10.157-22.26-22.76-22.26-12.578 0-22.735 9.657-22.735 22.26 0 34.616-13.937 66.26-36.969 89.065-22.76 22.805-54.093 37.315-89.16 37.315-34.547 0-66.129-14.51-88.888-37.315-22.76-22.805-37.216-54.449-37.216-89.065 0-17.432 3.758-33.551 9.638-48.011 6.425-15.822 15.519-29.787 27.578-41.326 8.822-8.567 8.822-23.077 0-32.189-8.822-8.567-23.303-8.567-32.397 0-15.519 16.095-28.369 34.888-36.944 56.059-8.303 20.131-13.122 42.143-13.122 65.468 0 46.947 19.275 90.129 50.066 121.254 11.244 11.019 23.575 20.131 36.4 27.905 8.031 26.568 32.15 123.68-8.031 220.248H98.525V195.334h830.537v576.779H794.68c-40.7-96.567-16.606-193.679-8.575-220.248 13.394-7.775 25.7-16.887 36.153-27.905 31.063-31.124 50.338-74.307 50.338-121.254 0-23.325-4.844-45.337-13.147-65.468-8.55-21.171-21.4-39.964-37.191-56.059-8.847-8.567-23.303-8.567-31.854 0-9.119 9.112-9.119 23.622 0 32.189 11.516 11.539 21.4 25.504 27.307 41.326 6.4 14.46 9.638 30.58 9.638 48.011 0 34.616-13.938 66.26-36.944 89.065-22.488 22.805-54.094 37.315-89.159 37.315-34.549 0-66.699-14.51-89.162-37.315-22.488-22.805-36.969-54.449-36.969-89.065 0-12.603-10.181-22.26-22.76-22.26-12.307 0-22.191 9.657-22.191 22.26 0 46.947 19.275 90.129 49.77 121.254 31.063 31.397 73.888 50.71 121.312 50.71 11.514 0 23.302-1.065 33.977-3.765-9.094 45.883-16.582 122.617 10.725 201.208H281.416zM861.352 666.16c-20.906 0-37.76 17.432-37.76 38.107 0 20.897 16.853 37.81 37.76 37.81 20.61 0 37.76-16.913 37.76-37.81 0-20.676-17.15-38.107-37.76-38.107zM701.246 363.285c21.671 0 39.34 17.703 39.34 39.419 0 21.22-17.669 39.172-39.34 39.172-21.698 0-39.639-17.952-39.639-39.172 0-21.716 17.94-39.419 39.639-39.419z m-374.855 0c-21.672 0-39.366 17.703-39.366 39.419 0 21.22 17.694 39.172 39.366 39.172 22.241 0 39.366-17.952 39.366-39.172 0-21.716-17.125-39.419-39.366-39.419z" p-id="876"></path></svg>